<svg width="32" height="32" viewBox="0 0 32 32" fill="none" xmlns="http://www.w3.org/2000/svg">
  <path d="M27.5821 4.30078L17.3333 11.1484L19.2873 7.11719L27.5821 4.30078Z" fill="#E17726" stroke="#E17726" stroke-width="0.25" stroke-linecap="round" stroke-linejoin="round"/>
  <path d="M4.41797 4.30078L14.5873 11.2031L12.7127 7.11719L4.41797 4.30078Z" fill="#E27625" stroke="#E27625" stroke-width="0.25" stroke-linecap="round" stroke-linejoin="round"/>
  <path d="M23.9462 21.8242L21.1826 26.0742L27.0462 27.7383L28.7103 21.9062L23.9462 21.8242Z" fill="#E27625" stroke="#E27625" stroke-width="0.25" stroke-linecap="round" stroke-linejoin="round"/>
  <path d="M3.29688 21.9062L4.95365 27.7383L10.8173 26.0742L8.05365 21.8242L3.29688 21.9062Z" fill="#E27625" stroke="#E27625" stroke-width="0.25" stroke-linecap="round" stroke-linejoin="round"/>
  <path d="M10.4897 14.5L8.81641 17.0781L14.6255 17.3516L14.4069 11.0391L10.4897 14.5Z" fill="#E27625" stroke="#E27625" stroke-width="0.25" stroke-linecap="round" stroke-linejoin="round"/>
  <path d="M21.5103 14.5L17.5385 10.9844L17.3745 17.3516L23.1836 17.0781L21.5103 14.5Z" fill="#E27625" stroke="#E27625" stroke-width="0.25" stroke-linecap="round" stroke-linejoin="round"/>
  <path d="M10.8174 26.0742L14.2442 24.3008L11.3174 21.9609L10.8174 26.0742Z" fill="#E27625" stroke="#E27625" stroke-width="0.25" stroke-linecap="round" stroke-linejoin="round"/>
  <path d="M17.7559 24.3008L21.1827 26.0742L20.6827 21.9609L17.7559 24.3008Z" fill="#E27625" stroke="#E27625" stroke-width="0.25" stroke-linecap="round" stroke-linejoin="round"/>
  <path d="M21.1827 26.0742L17.7559 24.3008L18.0827 26.6953L18.0554 27.6836L21.1827 26.0742Z" fill="#D5BFB2" stroke="#D5BFB2" stroke-width="0.25" stroke-linecap="round" stroke-linejoin="round"/>
  <path d="M10.8174 26.0742L13.9447 27.6836L13.9174 26.6953L14.2442 24.3008L10.8174 26.0742Z" fill="#D5BFB2" stroke="#D5BFB2" stroke-width="0.25" stroke-linecap="round" stroke-linejoin="round"/>
  <path d="M14.0176 20.2969L11.2266 19.4453L13.1807 18.4844L14.0176 20.2969Z" fill="#233447" stroke="#233447" stroke-width="0.25" stroke-linecap="round" stroke-linejoin="round"/>
  <path d="M17.9824 20.2969L18.8193 18.4844L20.7734 19.4453L17.9824 20.2969Z" fill="#233447" stroke="#233447" stroke-width="0.25" stroke-linecap="round" stroke-linejoin="round"/>
  <path d="M10.8173 26.0742L11.3446 21.8242L8.05371 21.9062L10.8173 26.0742Z" fill="#CC6228" stroke="#CC6228" stroke-width="0.25" stroke-linecap="round" stroke-linejoin="round"/>
  <path d="M20.6553 21.8242L21.1826 26.0742L23.9462 21.9062L20.6553 21.8242Z" fill="#CC6228" stroke="#CC6228" stroke-width="0.25" stroke-linecap="round" stroke-linejoin="round"/>
  <path d="M23.1836 17.0781L17.3745 17.3516L17.9836 20.2969L18.8204 18.4844L20.7745 19.4453L23.1836 17.0781Z" fill="#CC6228" stroke="#CC6228" stroke-width="0.25" stroke-linecap="round" stroke-linejoin="round"/>
  <path d="M11.2255 19.4453L13.1796 18.4844L14.0164 20.2969L14.6255 17.3516L8.81641 17.0781L11.2255 19.4453Z" fill="#CC6228" stroke="#CC6228" stroke-width="0.25" stroke-linecap="round" stroke-linejoin="round"/>
  <path d="M8.81641 17.0781L11.3164 21.9609L11.2255 19.4453L8.81641 17.0781Z" fill="#E27525" stroke="#E27525" stroke-width="0.25" stroke-linecap="round" stroke-linejoin="round"/>
  <path d="M20.7745 19.4453L20.6836 21.9609L23.1836 17.0781L20.7745 19.4453Z" fill="#E27525" stroke="#E27525" stroke-width="0.25" stroke-linecap="round" stroke-linejoin="round"/>
  <path d="M14.6255 17.3516L14.0164 20.2969L14.7891 24.0469L14.9802 19.1719L14.6255 17.3516Z" fill="#E27525" stroke="#E27525" stroke-width="0.25" stroke-linecap="round" stroke-linejoin="round"/>
  <path d="M17.3745 17.3516L17.0198 19.1719L17.2109 24.0469L17.9836 20.2969L17.3745 17.3516Z" fill="#E27525" stroke="#E27525" stroke-width="0.25" stroke-linecap="round" stroke-linejoin="round"/>
  <path d="M17.9836 20.2969L17.2109 24.0469L17.7563 24.3008L20.6831 21.9609L20.774 19.4453L17.9836 20.2969Z" fill="#F5841F" stroke="#F5841F" stroke-width="0.25" stroke-linecap="round" stroke-linejoin="round"/>
  <path d="M11.2266 19.4453L11.3175 21.9609L14.2443 24.3008L14.7897 24.0469L14.017 20.2969L11.2266 19.4453Z" fill="#F5841F" stroke="#F5841F" stroke-width="0.25" stroke-linecap="round" stroke-linejoin="round"/>
  <path d="M18.0554 27.6836L18.0827 26.6953L17.7827 26.4219H14.2173L13.9173 26.6953L13.9446 27.6836L10.8173 26.0742L11.9718 27.0078L14.1718 28.5078H17.8282L20.0282 27.0078L21.1827 26.0742L18.0554 27.6836Z" fill="#C0AC9D" stroke="#C0AC9D" stroke-width="0.25" stroke-linecap="round" stroke-linejoin="round"/>
  <path d="M17.7559 24.3008L17.2105 24.0469H14.7896L14.2442 24.3008L13.9174 26.6953L14.2174 26.4219H17.7828L18.0828 26.6953L17.7559 24.3008Z" fill="#161616" stroke="#161616" stroke-width="0.25" stroke-linecap="round" stroke-linejoin="round"/>
  <path d="M28.0466 11.7578L28.9925 7.52344L27.5821 4.30078L17.7559 10.9844L21.5103 14.5L26.9103 16.0547L28.1193 14.6172L27.6193 14.2539L28.4466 13.5273L27.8375 13.0547L28.6648 12.4375L28.0466 11.7578Z" fill="#763E1A" stroke="#763E1A" stroke-width="0.25" stroke-linecap="round" stroke-linejoin="round"/>
  <path d="M3.00781 7.52344L3.95372 11.7578L3.30827 12.4375L4.13554 13.0547L3.52645 13.5273L4.35372 14.2539L3.85372 14.6172L5.06281 16.0547L10.4628 14.5L14.2172 10.9844L4.39099 4.30078L3.00781 7.52344Z" fill="#763E1A" stroke="#763E1A" stroke-width="0.25" stroke-linecap="round" stroke-linejoin="round"/>
  <path d="M26.9102 16.0547L21.5102 14.5L23.1836 17.0781L20.6836 21.9609L23.9472 21.9062H28.7109L26.9102 16.0547Z" fill="#F5841F" stroke="#F5841F" stroke-width="0.25" stroke-linecap="round" stroke-linejoin="round"/>
  <path d="M10.4628 14.5L5.06281 16.0547L3.28906 21.9062H8.05281L11.3164 21.9609L8.81641 17.0781L10.4628 14.5Z" fill="#F5841F" stroke="#F5841F" stroke-width="0.25" stroke-linecap="round" stroke-linejoin="round"/>
  <path d="M17.3745 17.3516L17.7564 10.9844L19.2877 7.11719H12.7124L14.2437 10.9844L14.6255 17.3516L14.7892 19.1719L14.7892 24.0469H17.2109L17.2109 19.1719L17.3745 17.3516Z" fill="#F5841F" stroke="#F5841F" stroke-width="0.25" stroke-linecap="round" stroke-linejoin="round"/>
</svg>