<svg width="32" height="32" viewBox="0 0 32 32" fill="none" xmlns="http://www.w3.org/2000/svg">
<rect width="32" height="32" rx="8" fill="#3B99FC"/>
<path d="M9.5 13.5C13.6421 9.35786 20.3579 9.35786 24.5 13.5L25 14C25.2761 14.2761 25.2761 14.7239 25 15L23.5 16.5C23.3619 16.6381 23.1381 16.6381 23 16.5L22.7 16.2C19.9 13.4 15.1 13.4 12.3 16.2L12 16.5C11.8619 16.6381 11.6381 16.6381 11.5 16.5L10 15C9.72386 14.7239 9.72386 14.2761 10 14L9.5 13.5Z" fill="white"/>
<path d="M20.2 18.2L21.5 19.5C21.7761 19.7761 21.7761 20.2239 21.5 20.5L16.5 25.5C16.2239 25.7761 15.7761 25.7761 15.5 25.5L10.5 20.5C10.2239 20.2239 10.2239 19.7761 10.5 19.5L11.8 18.2C12.0761 17.9239 12.5239 17.9239 12.8 18.2L16 21.4L19.2 18.2C19.4761 17.9239 19.9239 17.9239 20.2 18.2Z" fill="white"/>
</svg>