<svg xmlns="http://www.w3.org/2000/svg" xmlns:xlink="http://www.w3.org/1999/xlink" viewBox="0 0 1024 1024" width="1024" height="1024" preserveAspectRatio="xMidYMid meet" style="width: 100%; height: 100%; transform: translate3d(0px, 0px, 0px); content-visibility: visible; background: #FFFFFF00"><defs><clipPath id="__lottie_element_2"><rect width="1024" height="1024" x="0" y="0"></rect></clipPath></defs><g clip-path="url(#__lottie_element_2)"><g transform="matrix(1,0,0,1,0,0)" opacity="1" style="display: block;"><g opacity="1" transform="matrix(1,0,0,1,0,0)"><g opacity="1" transform="matrix(1,0,0,1,0,0)"><path fill="rgb(240,238,231)" fill-opacity="1" d=" M0,512 C0,512 0,0 0,0 C0,0 512,0 512,0 C512,0 1024,0 1024,0 C1024,0 1024,512 1024,512 C1024,512 1024,1024 1024,1024 C1024,1024 512,1024 512,1024 C512,1024 0,1024 0,1024 C0,1024 0,512 0,512 C0,512 0,512 0,512z"></path><path stroke-linecap="round" stroke-linejoin="round" fill-opacity="0" stroke="rgb(240,238,231)" stroke-opacity="1" stroke-width="1" d=" M0,512 C0,512 0,0 0,0 C0,0 512,0 512,0 C512,0 1024,0 1024,0 C1024,0 1024,512 1024,512 C1024,512 1024,1024 1024,1024 C1024,1024 512,1024 512,1024 C512,1024 0,1024 0,1024 C0,1024 0,512 0,512 C0,512 0,512 0,512z"></path></g></g><g opacity="1" transform="matrix(1,0,0,1,0,0)"><g opacity="1" transform="matrix(1,0,0,1,0,0)"><path fill="rgb(32,33,32)" fill-opacity="1" d=" M506.61700439453125,934.0869750976562 C505.6189880371094,915.176025390625 502.34600830078125,904.7639770507812 493.1400146484375,891.2069702148438 C483.8789978027344,877.5700073242188 480.23699951171875,876.4810180664062 447.0270080566406,877.427978515625 C419.0780029296875,878.2249755859375 411.5820007324219,877.593017578125 387.5,872.4140014648438 C343.1449890136719,862.8759765625 311.7250061035156,848.5490112304688 282.1440124511719,824.3729858398438 C274.2829895019531,817.947998046875 265.0710144042969,809.5339965820312 261.67498779296875,805.676025390625 C258.27899169921875,801.8179931640625 251.718994140625,794.5750122070312 247.09800720214844,789.5809936523438 C239.06199645996094,780.89599609375 232.36700439453125,772.52197265625 219.7239990234375,755.3460083007812 C212.2969970703125,745.2570190429688 201.9969940185547,724.3839721679688 192.90499877929688,701 C184.31700134277344,678.9119873046875 180.41700744628906,665.864990234375 178.81900024414062,653.8599853515625 C176.99400329589844,640.1530151367188 178.56500244140625,639.885009765625 193.3509979248047,651.3889770507812 C221.1750030517578,673.0360107421875 255.1060028076172,689.8690185546875 290.375,699.52001953125 C345.0169982910156,714.4730224609375 349.135009765625,715.8660278320312 374.20001220703125,727.8569946289062 C419.60198974609375,749.5780029296875 438.56201171875,763.4559936523438 460.4649963378906,791 C478.6419982910156,813.8590087890625 481.16400146484375,818.8159790039062 493.04901123046875,855.0609741210938 C501.2860107421875,880.1799926757812 505.45001220703125,889.9500122070312 507.1809997558594,888.218994140625 C508.8710021972656,886.5289916992188 507.53900146484375,800.3250122070312 505.6780090332031,790.9710083007812 C500.63299560546875,765.6069946289062 497.75299072265625,757.5280151367188 490.0889892578125,747.22900390625 C481.968994140625,736.3179931640625 477.51800537109375,732.2570190429688 469.5,728.4390258789062 C459.0559997558594,723.4669799804688 452.9670104980469,722.4450073242188 410.1419982910156,718.4719848632812 C392.27099609375,716.8140258789062 368.3890075683594,711.72802734375 349.8039855957031,705.6229858398438 C337.625,701.6220092773438 313.90899658203125,690.52197265625 301.1340026855469,682.843994140625 C274.7080078125,666.9609985351562 244.73500061035156,639.1740112304688 226,613.1890258789062 C197.1490020751953,573.1729736328125 186.29299926757812,549.4140014648438 180.4770050048828,513.5579833984375 C179.66900634765625,508.57598876953125 179.00599670410156,503.93798828125 179.00399780273438,503.25 C178.9969940185547,501.2040100097656 181.46499633789062,501.7959899902344 188.677001953125,505.5710144042969 C210.2270050048828,516.8510131835938 247.2729949951172,528.802001953125 297,540.5170288085938 C322.8919982910156,546.6170043945312 341.11700439453125,553.0659790039062 356.5,561.572998046875 C392.94000244140625,581.7239990234375 418.87200927734375,600.8109741210938 441.6889953613281,624.2730102539062 C459.57000732421875,642.6599731445312 466.0790100097656,654.9019775390625 477.99700927734375,692.5819702148438 C483.8290100097656,711.02099609375 493.2550048828125,731.2429809570312 501.6570129394531,743.3410034179688 C504.77301025390625,747.8280029296875 507.7380065917969,751.9500122070312 508.2449951171875,752.5 C508.8080139160156,753.1110229492188 508.9989929199219,738.3159790039062 508.7349853515625,714.5 C508.2430114746094,670.02197265625 508.58599853515625,672.3090209960938 497.4330139160156,639.2969970703125 C490.9129943847656,619.9979858398438 487.19500732421875,611.4929809570312 483.6130065917969,607.6790161132812 C479.67498779296875,603.4860229492188 469.8710021972656,599.4669799804688 449.0979919433594,593.5280151367188 C414.6549987792969,583.6820068359375 396.7690124511719,576.791015625 378.5,566.3319702148438 C339.9049987792969,544.2360229492188 340.1180114746094,544.3790283203125 325.10699462890625,530.5449829101562 C302.7489929199219,509.94000244140625 286.9840087890625,489.8900146484375 272.3919982910156,463.5 C255.8280029296875,433.54400634765625 249.5659942626953,417.6159973144531 244.48399353027344,392.5169982910156 C241.93299865722656,379.9159851074219 241.11399841308594,364 243.01800537109375,364 C243.5780029296875,364 247.06500244140625,365.8590087890625 250.76800537109375,368.1310119628906 C270.0150146484375,379.9429931640625 275.2099914550781,383.0220031738281 283,387.23199462890625 C296.46600341796875,394.510009765625 330.98199462890625,410.218994140625 349.03399658203125,417.2850036621094 C371.96099853515625,426.2590026855469 381.2300109863281,431.06201171875 403.5,445.5060119628906 C422.35101318359375,457.73199462890625 440.6449890136719,474.0400085449219 449.61700439453125,486.61199951171875 C456.2250061035156,495.87200927734375 469.3940124511719,519.8200073242188 472.927001953125,529 C474.5140075683594,533.125 478.57501220703125,546.8499755859375 481.95098876953125,559.5 C485.3269958496094,572.1500244140625 489.6860046386719,587.2249755859375 491.63800048828125,593 C495.0220031738281,603.010009765625 505.9429931640625,625.22900390625 508.1499938964844,626.593017578125 C508.87200927734375,627.0390014648438 509.04901123046875,612.3200073242188 508.72601318359375,578.8690185546875 C508.35198974609375,540.1619873046875 507.9519958496094,529.2020263671875 506.7250061035156,524 C502.6059875488281,506.5350036621094 492.5790100097656,480.2130126953125 485.3420104980469,467.864990234375 C481.2749938964844,460.9259948730469 474.1470031738281,454.89898681640625 465.1440124511719,450.7869873046875 C461.64801025390625,449.19000244140625 449.552001953125,444.7720031738281 438.26300048828125,440.9679870605469 C406.62298583984375,430.3070068359375 391.8290100097656,422.5929870605469 369.5,405.11700439453125 C342.92498779296875,384.3179931640625 329.5409851074219,367.86700439453125 316.5950012207031,340.0889892578125 C307.5660095214844,320.71600341796875 302.614013671875,304.3240051269531 297.8389892578125,278 C295.8550109863281,267.06500244140625 295.5669860839844,262.1199951171875 295.5360107421875,238.5 C295.50201416015625,212.93899536132812 295.9939880371094,206 297.8389892578125,206 C298.8389892578125,206 308.29400634765625,213.4320068359375 318.281005859375,222.06700134277344 C326.9989929199219,229.60499572753906 352.89801025390625,247.77999877929688 384,268.18798828125 C395.82501220703125,275.9469909667969 407.5249938964844,283.90899658203125 410,285.8810119628906 C421.0589904785156,294.6919860839844 427.6719970703125,300.9389953613281 431.9209899902344,306.5880126953125 C434.4389953613281,309.9360046386719 440.0350036621094,317.28900146484375 444.3559875488281,322.9289855957031 C464.5159912109375,349.2439880371094 471.39300537109375,364.9830017089844 478.468994140625,401 C485.1549987792969,435.0329895019531 486.1570129394531,439.4440002441406 489.7030029296875,450.4530029296875 C493.4159851074219,461.97900390625 495.1159973144531,465.20001220703125 503.39599609375,476.4100036621094 C508.5,483.32000732421875 508.5,483.32000732421875 509.1619873046875,478.4100036621094 C510.21099853515625,470.635986328125 510.0849914550781,432.3840026855469 508.97900390625,422.7279968261719 C508.3160095214844,416.9419860839844 506.65899658203125,410.4750061035156 504.1090087890625,403.7279968261719 C500.29901123046875,393.64599609375 485.239013671875,359.3529968261719 480.60101318359375,350.197998046875 C472.8169860839844,334.8340148925781 463.57598876953125,308.6969909667969 460.02398681640625,292 C456.8240051269531,276.9580078125 457.03399658203125,245.88600158691406 460.47900390625,224.47500610351562 C462.8139953613281,209.96299743652344 472.5119934082031,171.4429931640625 477.9700012207031,155 C485.3290100097656,132.83099365234375 514.5029907226562,70 517.43701171875,70 C519.2899780273438,70 528.2039794921875,90.46099853515625 537.6439819335938,116.38600158691406 C558.4949951171875,173.64500427246094 563.125,189.0290069580078 569.5830078125,222.5 C572.1859741210938,235.99099731445312 572.2620239257812,237.3179931640625 571.656982421875,259 C570.7210083007812,292.5539855957031 568.8319702148438,306.61199951171875 562.8599853515625,324.5 C561.2069702148438,329.45001220703125 552.5029907226562,348.57501220703125 543.5159912109375,367 C525.5830078125,403.7650146484375 523.3400268554688,409.4169921875 521.9169921875,421.39898681640625 C520.8489990234375,430.3909912109375 520.9019775390625,477.3760070800781 521.9840087890625,480.45599365234375 C522.5499877929688,482.0669860839844 523.7329711914062,480.8340148925781 528.6929931640625,473.45599365234375 C539.1959838867188,457.8340148925781 542.2999877929688,449.8190002441406 550.5579833984375,417 C556.926025390625,391.6919860839844 561.7890014648438,377.3070068359375 568.5139770507812,363.87799072265625 C583.8070068359375,333.3389892578125 596.1190185546875,316.4639892578125 624.5,287.1520080566406 C636.7410278320312,274.5090026855469 638.7949829101562,272.8840026855469 678,244.80999755859375 C701.0079956054688,228.3350067138672 710.1690063476562,221.2740020751953 722.5,210.51699829101562 C732.4240112304688,201.85899353027344 735.2360229492188,199.83299255371094 736.0960083007812,200.7209930419922 C737.7550048828125,202.43499755859375 739,218.21600341796875 739,237.53399658203125 C739,268.67999267578125 736.0900268554688,288.6650085449219 726.9550170898438,320.2510070800781 C721.4390258789062,339.32598876953125 717.968994140625,347.6210021972656 709.7210083007812,361.4429931640625 C697.4010009765625,382.0889892578125 683.4840087890625,397.1679992675781 664.2080078125,410.7560119628906 C638.760986328125,428.6940002441406 626.614990234375,433.77099609375 584.5,444.0769958496094 C565.3670043945312,448.7590026855469 559.280029296875,451.24200439453125 552.6799926757812,457.0509948730469 C543.1220092773438,465.4639892578125 536.8170166015625,478.2690124511719 530.4390258789062,502.22698974609375 C525.7880249023438,519.698974609375 524.2520141601562,529.9119873046875 522.9550170898438,552 C521.8489990234375,570.8369750976562 522.5969848632812,628 523.9500122070312,628 C525.2210083007812,628 533.8469848632812,610.593994140625 538.3400268554688,598.9630126953125 C540.7750244140625,592.6589965820312 544.6500244140625,579.625 546.9500122070312,570 C549.25,560.375 553.1790161132812,546.2000122070312 555.6790161132812,538.5 C567.052001953125,503.47601318359375 588.8350219726562,471.5369873046875 615.9970092773438,450.05999755859375 C636.35498046875,433.9630126953125 646.52197265625,428.96600341796875 684.1740112304688,416.5480041503906 C716.155029296875,406.0010070800781 724.7940063476562,402.86700439453125 736.0670166015625,397.72698974609375 C745.041015625,393.635009765625 763.6339721679688,382.4410095214844 778.1610107421875,372.3819885253906 C788.6510009765625,365.1189880371094 792,363.66400146484375 792,366.3689880371094 C792,370.4150085449219 788.5120239257812,387.06201171875 785.3720092773438,398 C779.3880004882812,418.843994140625 772.47900390625,434.3890075683594 756.7050170898438,462.5 C746.1959838867188,481.2279968261719 730.1820068359375,502.61199951171875 714.5,518.8560180664062 C694.8070068359375,539.2550048828125 676.7540283203125,552.1669921875 648.68798828125,565.9290161132812 C628.927978515625,575.6179809570312 622.4569702148438,577.8870239257812 590.02197265625,586.489990234375 C578.208984375,589.6229858398438 565.7349853515625,593.4609985351562 562.2999877929688,595.0180053710938 C554.1790161132812,598.7000122070312 546.6959838867188,606.1810302734375 543.0360107421875,614.2780151367188 C539.5070190429688,622.083984375 531.97802734375,645.3099975585938 527.2420043945312,663 C523.6279907226562,676.5 523.6279907226562,676.5 523.22802734375,717.25 C522.8980102539062,750.7979736328125 523.0640258789062,757.9949951171875 524.1640014648438,757.9719848632812 C526.0009765625,757.9329833984375 537.6119995117188,739.4099731445312 541.6270141601562,730.1119995117188 C543.4349975585938,725.9249877929688 547.8569946289062,712.281005859375 551.4530029296875,699.7899780273438 C559.5390014648438,671.7069702148438 562.5490112304688,663.3939819335938 569.0689697265625,651.135986328125 C575.594970703125,638.8660278320312 579.323974609375,633.9349975585938 592.4000244140625,620.2899780273438 C604.8079833984375,607.3410034179688 612.4869995117188,600.8759765625 630.39697265625,588.2990112304688 C645.1179809570312,577.9609985351562 653.833984375,572.9669799804688 678.7630004882812,560.5780029296875 C698.6240234375,550.7080078125 711.823974609375,545.9140014648438 738.5,538.8829956054688 C804.0349731445312,521.6099853515625 815.5059814453125,517.9409790039062 840.2230224609375,506.34698486328125 C846.6710205078125,503.322998046875 852.3469848632812,501.09698486328125 852.8380126953125,501.3999938964844 C854.093017578125,502.1759948730469 851.541015625,517.43701171875 848.0549926757812,530 C840.718017578125,556.4409790039062 832.2520141601562,572.1489868164062 801.4249877929688,616.5180053710938 C775.52197265625,653.7999877929688 752.2379760742188,673.864013671875 710.7479858398438,694.655029296875 C687.4760131835938,706.3170166015625 658.926025390625,715.4910278320312 633.4299926757812,719.5 C604.7520141601562,724.010009765625 575.72802734375,729.1849975585938 572.27001953125,730.405029296875 C567.0780029296875,732.2369995117188 558.2979736328125,736.719970703125 554.7139892578125,739.3690185546875 C550.8270263671875,742.2420043945312 544.5609741210938,752.5399780273438 536.0759887695312,770 C524.5269775390625,793.7639770507812 524.7420043945312,792.3499755859375 524.2429809570312,847.8579711914062 C523.9760131835938,877.5419921875 524.177001953125,895.5770263671875 524.781982421875,896.1820068359375 C526.6749877929688,898.0750122070312 529.947998046875,890.3060302734375 534.9910278320312,871.9420166015625 C545.1389770507812,834.9929809570312 550.010986328125,823.10498046875 563.4520263671875,802.5 C574.906982421875,784.9400024414062 582.4619750976562,776.5700073242188 601.5009765625,760.3469848632812 C610.7249755859375,752.4869995117188 623.4829711914062,744.8519897460938 647,733.1170043945312 C678.81298828125,717.2429809570312 688.031005859375,713.6580200195312 729.5,701.0280151367188 C776.1110229492188,686.8330078125 802.0230102539062,674.4959716796875 836.1610107421875,650.25 C842.5499877929688,645.7130126953125 848.5029907226562,642 849.3889770507812,642 C851.531005859375,642 851.4569702148438,644.5139770507812 848.9299926757812,657.698974609375 C842.2210083007812,692.7050170898438 832.1849975585938,716.8270263671875 808.0330200195312,756 C782.5700073242188,797.2990112304688 745.7509765625,831.4739990234375 704.1480102539062,852.4249877929688 C687.27001953125,860.9240112304688 658.9819946289062,870.8909912109375 641.8150024414062,874.385009765625 C623.7130126953125,878.0700073242188 613.4459838867188,878.9990234375 584,879.6160278320312 C553.635986328125,880.2520141601562 550.0770263671875,880.9229736328125 543.81298828125,887.18701171875 C538.5180053710938,892.4819946289062 527.2979736328125,915.3289794921875 525.97998046875,923.5 C525.447998046875,926.7999877929688 525.0089721679688,933.43798828125 525.0059814453125,938.25 C525,947 525,947 516.1500244140625,947 C516.1500244140625,947 507.29901123046875,947 507.29901123046875,947 C507.29901123046875,947 506.61700439453125,934.0869750976562 506.61700439453125,934.0869750976562 C506.61700439453125,934.0869750976562 506.61700439453125,934.0869750976562 506.61700439453125,934.0869750976562z"></path><path stroke-linecap="round" stroke-linejoin="round" fill-opacity="0" stroke="rgb(32,33,32)" stroke-opacity="1" stroke-width="1" d=" M506.61700439453125,934.0869750976562 C505.6189880371094,915.176025390625 502.34600830078125,904.7639770507812 493.1400146484375,891.2069702148438 C483.8789978027344,877.5700073242188 480.23699951171875,876.4810180664062 447.0270080566406,877.427978515625 C419.0780029296875,878.2249755859375 411.5820007324219,877.593017578125 387.5,872.4140014648438 C343.1449890136719,862.8759765625 311.7250061035156,848.5490112304688 282.1440124511719,824.3729858398438 C274.2829895019531,817.947998046875 265.0710144042969,809.5339965820312 261.67498779296875,805.676025390625 C258.27899169921875,801.8179931640625 251.718994140625,794.5750122070312 247.09800720214844,789.5809936523438 C239.06199645996094,780.89599609375 232.36700439453125,772.52197265625 219.7239990234375,755.3460083007812 C212.2969970703125,745.2570190429688 201.9969940185547,724.3839721679688 192.90499877929688,701 C184.31700134277344,678.9119873046875 180.41700744628906,665.864990234375 178.81900024414062,653.8599853515625 C176.99400329589844,640.1530151367188 178.56500244140625,639.885009765625 193.3509979248047,651.3889770507812 C221.1750030517578,673.0360107421875 255.1060028076172,689.8690185546875 290.375,699.52001953125 C345.0169982910156,714.4730224609375 349.135009765625,715.8660278320312 374.20001220703125,727.8569946289062 C419.60198974609375,749.5780029296875 438.56201171875,763.4559936523438 460.4649963378906,791 C478.6419982910156,813.8590087890625 481.16400146484375,818.8159790039062 493.04901123046875,855.0609741210938 C501.2860107421875,880.1799926757812 505.45001220703125,889.9500122070312 507.1809997558594,888.218994140625 C508.8710021972656,886.5289916992188 507.53900146484375,800.3250122070312 505.6780090332031,790.9710083007812 C500.63299560546875,765.6069946289062 497.75299072265625,757.5280151367188 490.0889892578125,747.22900390625 C481.968994140625,736.3179931640625 477.51800537109375,732.2570190429688 469.5,728.4390258789062 C459.0559997558594,723.4669799804688 452.9670104980469,722.4450073242188 410.1419982910156,718.4719848632812 C392.27099609375,716.8140258789062 368.3890075683594,711.72802734375 349.8039855957031,705.6229858398438 C337.625,701.6220092773438 313.90899658203125,690.52197265625 301.1340026855469,682.843994140625 C274.7080078125,666.9609985351562 244.73500061035156,639.1740112304688 226,613.1890258789062 C197.1490020751953,573.1729736328125 186.29299926757812,549.4140014648438 180.4770050048828,513.5579833984375 C179.66900634765625,508.57598876953125 179.00599670410156,503.93798828125 179.00399780273438,503.25 C178.9969940185547,501.2040100097656 181.46499633789062,501.7959899902344 188.677001953125,505.5710144042969 C210.2270050048828,516.8510131835938 247.2729949951172,528.802001953125 297,540.5170288085938 C322.8919982910156,546.6170043945312 341.11700439453125,553.0659790039062 356.5,561.572998046875 C392.94000244140625,581.7239990234375 418.87200927734375,600.8109741210938 441.6889953613281,624.2730102539062 C459.57000732421875,642.6599731445312 466.0790100097656,654.9019775390625 477.99700927734375,692.5819702148438 C483.8290100097656,711.02099609375 493.2550048828125,731.2429809570312 501.6570129394531,743.3410034179688 C504.77301025390625,747.8280029296875 507.7380065917969,751.9500122070312 508.2449951171875,752.5 C508.8080139160156,753.1110229492188 508.9989929199219,738.3159790039062 508.7349853515625,714.5 C508.2430114746094,670.02197265625 508.58599853515625,672.3090209960938 497.4330139160156,639.2969970703125 C490.9129943847656,619.9979858398438 487.19500732421875,611.4929809570312 483.6130065917969,607.6790161132812 C479.67498779296875,603.4860229492188 469.8710021972656,599.4669799804688 449.0979919433594,593.5280151367188 C414.6549987792969,583.6820068359375 396.7690124511719,576.791015625 378.5,566.3319702148438 C339.9049987792969,544.2360229492188 340.1180114746094,544.3790283203125 325.10699462890625,530.5449829101562 C302.7489929199219,509.94000244140625 286.9840087890625,489.8900146484375 272.3919982910156,463.5 C255.8280029296875,433.54400634765625 249.5659942626953,417.6159973144531 244.48399353027344,392.5169982910156 C241.93299865722656,379.9159851074219 241.11399841308594,364 243.01800537109375,364 C243.5780029296875,364 247.06500244140625,365.8590087890625 250.76800537109375,368.1310119628906 C270.0150146484375,379.9429931640625 275.2099914550781,383.0220031738281 283,387.23199462890625 C296.46600341796875,394.510009765625 330.98199462890625,410.218994140625 349.03399658203125,417.2850036621094 C371.96099853515625,426.2590026855469 381.2300109863281,431.06201171875 403.5,445.5060119628906 C422.35101318359375,457.73199462890625 440.6449890136719,474.0400085449219 449.61700439453125,486.61199951171875 C456.2250061035156,495.87200927734375 469.3940124511719,519.8200073242188 472.927001953125,529 C474.5140075683594,533.125 478.57501220703125,546.8499755859375 481.95098876953125,559.5 C485.3269958496094,572.1500244140625 489.6860046386719,587.2249755859375 491.63800048828125,593 C495.0220031738281,603.010009765625 505.9429931640625,625.22900390625 508.1499938964844,626.593017578125 C508.87200927734375,627.0390014648438 509.04901123046875,612.3200073242188 508.72601318359375,578.8690185546875 C508.35198974609375,540.1619873046875 507.9519958496094,529.2020263671875 506.7250061035156,524 C502.6059875488281,506.5350036621094 492.5790100097656,480.2130126953125 485.3420104980469,467.864990234375 C481.2749938964844,460.9259948730469 474.1470031738281,454.89898681640625 465.1440124511719,450.7869873046875 C461.64801025390625,449.19000244140625 449.552001953125,444.7720031738281 438.26300048828125,440.9679870605469 C406.62298583984375,430.3070068359375 391.8290100097656,422.5929870605469 369.5,405.11700439453125 C342.92498779296875,384.3179931640625 329.5409851074219,367.86700439453125 316.5950012207031,340.0889892578125 C307.5660095214844,320.71600341796875 302.614013671875,304.3240051269531 297.8389892578125,278 C295.8550109863281,267.06500244140625 295.5669860839844,262.1199951171875 295.5360107421875,238.5 C295.50201416015625,212.93899536132812 295.9939880371094,206 297.8389892578125,206 C298.8389892578125,206 308.29400634765625,213.4320068359375 318.281005859375,222.06700134277344 C326.9989929199219,229.60499572753906 352.89801025390625,247.77999877929688 384,268.18798828125 C395.82501220703125,275.9469909667969 407.5249938964844,283.90899658203125 410,285.8810119628906 C421.0589904785156,294.6919860839844 427.6719970703125,300.9389953613281 431.9209899902344,306.5880126953125 C434.4389953613281,309.9360046386719 440.0350036621094,317.28900146484375 444.3559875488281,322.9289855957031 C464.5159912109375,349.2439880371094 471.39300537109375,364.9830017089844 478.468994140625,401 C485.1549987792969,435.0329895019531 486.1570129394531,439.4440002441406 489.7030029296875,450.4530029296875 C493.4159851074219,461.97900390625 495.1159973144531,465.20001220703125 503.39599609375,476.4100036621094 C508.5,483.32000732421875 508.5,483.32000732421875 509.1619873046875,478.4100036621094 C510.21099853515625,470.635986328125 510.0849914550781,432.3840026855469 508.97900390625,422.7279968261719 C508.3160095214844,416.9419860839844 506.65899658203125,410.4750061035156 504.1090087890625,403.7279968261719 C500.29901123046875,393.64599609375 485.239013671875,359.3529968261719 480.60101318359375,350.197998046875 C472.8169860839844,334.8340148925781 463.57598876953125,308.6969909667969 460.02398681640625,292 C456.8240051269531,276.9580078125 457.03399658203125,245.88600158691406 460.47900390625,224.47500610351562 C462.8139953613281,209.96299743652344 472.5119934082031,171.4429931640625 477.9700012207031,155 C485.3290100097656,132.83099365234375 514.5029907226562,70 517.43701171875,70 C519.2899780273438,70 528.2039794921875,90.46099853515625 537.6439819335938,116.38600158691406 C558.4949951171875,173.64500427246094 563.125,189.0290069580078 569.5830078125,222.5 C572.1859741210938,235.99099731445312 572.2620239257812,237.3179931640625 571.656982421875,259 C570.7210083007812,292.5539855957031 568.8319702148438,306.61199951171875 562.8599853515625,324.5 C561.2069702148438,329.45001220703125 552.5029907226562,348.57501220703125 543.5159912109375,367 C525.5830078125,403.7650146484375 523.3400268554688,409.4169921875 521.9169921875,421.39898681640625 C520.8489990234375,430.3909912109375 520.9019775390625,477.3760070800781 521.9840087890625,480.45599365234375 C522.5499877929688,482.0669860839844 523.7329711914062,480.8340148925781 528.6929931640625,473.45599365234375 C539.1959838867188,457.8340148925781 542.2999877929688,449.8190002441406 550.5579833984375,417 C556.926025390625,391.6919860839844 561.7890014648438,377.3070068359375 568.5139770507812,363.87799072265625 C583.8070068359375,333.3389892578125 596.1190185546875,316.4639892578125 624.5,287.1520080566406 C636.7410278320312,274.5090026855469 638.7949829101562,272.8840026855469 678,244.80999755859375 C701.0079956054688,228.3350067138672 710.1690063476562,221.2740020751953 722.5,210.51699829101562 C732.4240112304688,201.85899353027344 735.2360229492188,199.83299255371094 736.0960083007812,200.7209930419922 C737.7550048828125,202.43499755859375 739,218.21600341796875 739,237.53399658203125 C739,268.67999267578125 736.0900268554688,288.6650085449219 726.9550170898438,320.2510070800781 C721.4390258789062,339.32598876953125 717.968994140625,347.6210021972656 709.7210083007812,361.4429931640625 C697.4010009765625,382.0889892578125 683.4840087890625,397.1679992675781 664.2080078125,410.7560119628906 C638.760986328125,428.6940002441406 626.614990234375,433.77099609375 584.5,444.0769958496094 C565.3670043945312,448.7590026855469 559.280029296875,451.24200439453125 552.6799926757812,457.0509948730469 C543.1220092773438,465.4639892578125 536.8170166015625,478.2690124511719 530.4390258789062,502.22698974609375 C525.7880249023438,519.698974609375 524.2520141601562,529.9119873046875 522.9550170898438,552 C521.8489990234375,570.8369750976562 522.5969848632812,628 523.9500122070312,628 C525.2210083007812,628 533.8469848632812,610.593994140625 538.3400268554688,598.9630126953125 C540.7750244140625,592.6589965820312 544.6500244140625,579.625 546.9500122070312,570 C549.25,560.375 553.1790161132812,546.2000122070312 555.6790161132812,538.5 C567.052001953125,503.47601318359375 588.8350219726562,471.5369873046875 615.9970092773438,450.05999755859375 C636.35498046875,433.9630126953125 646.52197265625,428.96600341796875 684.1740112304688,416.5480041503906 C716.155029296875,406.0010070800781 724.7940063476562,402.86700439453125 736.0670166015625,397.72698974609375 C745.041015625,393.635009765625 763.6339721679688,382.4410095214844 778.1610107421875,372.3819885253906 C788.6510009765625,365.1189880371094 792,363.66400146484375 792,366.3689880371094 C792,370.4150085449219 788.5120239257812,387.06201171875 785.3720092773438,398 C779.3880004882812,418.843994140625 772.47900390625,434.3890075683594 756.7050170898438,462.5 C746.1959838867188,481.2279968261719 730.1820068359375,502.61199951171875 714.5,518.8560180664062 C694.8070068359375,539.2550048828125 676.7540283203125,552.1669921875 648.68798828125,565.9290161132812 C628.927978515625,575.6179809570312 622.4569702148438,577.8870239257812 590.02197265625,586.489990234375 C578.208984375,589.6229858398438 565.7349853515625,593.4609985351562 562.2999877929688,595.0180053710938 C554.1790161132812,598.7000122070312 546.6959838867188,606.1810302734375 543.0360107421875,614.2780151367188 C539.5070190429688,622.083984375 531.97802734375,645.3099975585938 527.2420043945312,663 C523.6279907226562,676.5 523.6279907226562,676.5 523.22802734375,717.25 C522.8980102539062,750.7979736328125 523.0640258789062,757.9949951171875 524.1640014648438,757.9719848632812 C526.0009765625,757.9329833984375 537.6119995117188,739.4099731445312 541.6270141601562,730.1119995117188 C543.4349975585938,725.9249877929688 547.8569946289062,712.281005859375 551.4530029296875,699.7899780273438 C559.5390014648438,671.7069702148438 562.5490112304688,663.3939819335938 569.0689697265625,651.135986328125 C575.594970703125,638.8660278320312 579.323974609375,633.9349975585938 592.4000244140625,620.2899780273438 C604.8079833984375,607.3410034179688 612.4869995117188,600.8759765625 630.39697265625,588.2990112304688 C645.1179809570312,577.9609985351562 653.833984375,572.9669799804688 678.7630004882812,560.5780029296875 C698.6240234375,550.7080078125 711.823974609375,545.9140014648438 738.5,538.8829956054688 C804.0349731445312,521.6099853515625 815.5059814453125,517.9409790039062 840.2230224609375,506.34698486328125 C846.6710205078125,503.322998046875 852.3469848632812,501.09698486328125 852.8380126953125,501.3999938964844 C854.093017578125,502.1759948730469 851.541015625,517.43701171875 848.0549926757812,530 C840.718017578125,556.4409790039062 832.2520141601562,572.1489868164062 801.4249877929688,616.5180053710938 C775.52197265625,653.7999877929688 752.2379760742188,673.864013671875 710.7479858398438,694.655029296875 C687.4760131835938,706.3170166015625 658.926025390625,715.4910278320312 633.4299926757812,719.5 C604.7520141601562,724.010009765625 575.72802734375,729.1849975585938 572.27001953125,730.405029296875 C567.0780029296875,732.2369995117188 558.2979736328125,736.719970703125 554.7139892578125,739.3690185546875 C550.8270263671875,742.2420043945312 544.5609741210938,752.5399780273438 536.0759887695312,770 C524.5269775390625,793.7639770507812 524.7420043945312,792.3499755859375 524.2429809570312,847.8579711914062 C523.9760131835938,877.5419921875 524.177001953125,895.5770263671875 524.781982421875,896.1820068359375 C526.6749877929688,898.0750122070312 529.947998046875,890.3060302734375 534.9910278320312,871.9420166015625 C545.1389770507812,834.9929809570312 550.010986328125,823.10498046875 563.4520263671875,802.5 C574.906982421875,784.9400024414062 582.4619750976562,776.5700073242188 601.5009765625,760.3469848632812 C610.7249755859375,752.4869995117188 623.4829711914062,744.8519897460938 647,733.1170043945312 C678.81298828125,717.2429809570312 688.031005859375,713.6580200195312 729.5,701.0280151367188 C776.1110229492188,686.8330078125 802.0230102539062,674.4959716796875 836.1610107421875,650.25 C842.5499877929688,645.7130126953125 848.5029907226562,642 849.3889770507812,642 C851.531005859375,642 851.4569702148438,644.5139770507812 848.9299926757812,657.698974609375 C842.2210083007812,692.7050170898438 832.1849975585938,716.8270263671875 808.0330200195312,756 C782.5700073242188,797.2990112304688 745.7509765625,831.4739990234375 704.1480102539062,852.4249877929688 C687.27001953125,860.9240112304688 658.9819946289062,870.8909912109375 641.8150024414062,874.385009765625 C623.7130126953125,878.0700073242188 613.4459838867188,878.9990234375 584,879.6160278320312 C553.635986328125,880.2520141601562 550.0770263671875,880.9229736328125 543.81298828125,887.18701171875 C538.5180053710938,892.4819946289062 527.2979736328125,915.3289794921875 525.97998046875,923.5 C525.447998046875,926.7999877929688 525.0089721679688,933.43798828125 525.0059814453125,938.25 C525,947 525,947 516.1500244140625,947 C516.1500244140625,947 507.29901123046875,947 507.29901123046875,947 C507.29901123046875,947 506.61700439453125,934.0869750976562 506.61700439453125,934.0869750976562 C506.61700439453125,934.0869750976562 506.61700439453125,934.0869750976562 506.61700439453125,934.0869750976562z"></path></g><g opacity="1" transform="matrix(1,0,0,1,0,0)"><path fill="rgb(240,238,231)" fill-opacity="1" d=" M559,436.9670104980469 C560.375,435.87298583984375 566.9000244140625,431.9989929199219 573.5,428.3580017089844 C580.0999755859375,424.7170104980469 588.2360229492188,419.8030090332031 591.5789794921875,417.44000244140625 C599.8289794921875,411.6090087890625 611.5349731445312,398.95001220703125 618.5289916992188,388.29901123046875 C628.010009765625,373.8599853515625 632.6959838867188,368.26800537109375 648.9810180664062,351.9540100097656 C657.5170288085938,343.40301513671875 667.3909912109375,332.718994140625 670.9249877929688,328.2120056152344 C674.458984375,323.7049865722656 677.541015625,320.2080078125 677.7739868164062,320.4410095214844 C678.322998046875,320.989990234375 669.9340209960938,332.93798828125 664.0650024414062,339.9670104980469 C661.5540161132812,342.9739990234375 654.5499877929688,350.6820068359375 648.5,357.09600830078125 C640.8400268554688,365.2170104980469 635.5269775390625,372.0010070800781 631,379.44000244140625 C607.260986328125,418.4540100097656 602.0650024414062,423.3080139160156 572.52099609375,434.0639953613281 C557.7310180664062,439.4490051269531 555.1959838867188,439.9930114746094 559,436.9670104980469 C559,436.9670104980469 559,436.9670104980469 559,436.9670104980469z"></path><path stroke-linecap="round" stroke-linejoin="round" fill-opacity="0" stroke="rgb(240,238,231)" stroke-opacity="1" stroke-width="1" d=" M559,436.9670104980469 C560.375,435.87298583984375 566.9000244140625,431.9989929199219 573.5,428.3580017089844 C580.0999755859375,424.7170104980469 588.2360229492188,419.8030090332031 591.5789794921875,417.44000244140625 C599.8289794921875,411.6090087890625 611.5349731445312,398.95001220703125 618.5289916992188,388.29901123046875 C628.010009765625,373.8599853515625 632.6959838867188,368.26800537109375 648.9810180664062,351.9540100097656 C657.5170288085938,343.40301513671875 667.3909912109375,332.718994140625 670.9249877929688,328.2120056152344 C674.458984375,323.7049865722656 677.541015625,320.2080078125 677.7739868164062,320.4410095214844 C678.322998046875,320.989990234375 669.9340209960938,332.93798828125 664.0650024414062,339.9670104980469 C661.5540161132812,342.9739990234375 654.5499877929688,350.6820068359375 648.5,357.09600830078125 C640.8400268554688,365.2170104980469 635.5269775390625,372.0010070800781 631,379.44000244140625 C607.260986328125,418.4540100097656 602.0650024414062,423.3080139160156 572.52099609375,434.0639953613281 C557.7310180664062,439.4490051269531 555.1959838867188,439.9930114746094 559,436.9670104980469 C559,436.9670104980469 559,436.9670104980469 559,436.9670104980469z"></path></g><g opacity="1" transform="matrix(1,0,0,1,0,0)"><path fill="rgb(240,238,231)" fill-opacity="1" d=" M564,582.1389770507812 C564,580.593017578125 571.9000244140625,571.0399780273438 578.8040161132812,564.2369995117188 C584.8250122070312,558.3040161132812 592.4019775390625,552.1220092773438 607.9459838867188,540.458984375 C625.572021484375,527.2340087890625 633.5260009765625,520.2739868164062 645.0339965820312,508.0069885253906 C655.8330078125,496.4949951171875 680.9619750976562,474 683.02099609375,474 C683.4089965820312,474 677.7969970703125,479.9620056152344 670.5479736328125,487.25 C663.2990112304688,494.5379943847656 654.72802734375,503.875 651.5009765625,508 C634.7620239257812,529.39697265625 625.0189819335938,538.072998046875 597.0880126953125,556.4550170898438 C583.7960205078125,565.2020263671875 575.52001953125,571.4169921875 570.8380126953125,576.1640014648438 C567.0770263671875,579.9769897460938 564,582.6669921875 564,582.1389770507812 C564,582.1389770507812 564,582.1389770507812 564,582.1389770507812z"></path><path stroke-linecap="round" stroke-linejoin="round" fill-opacity="0" stroke="rgb(240,238,231)" stroke-opacity="1" stroke-width="1" d=" M564,582.1389770507812 C564,580.593017578125 571.9000244140625,571.0399780273438 578.8040161132812,564.2369995117188 C584.8250122070312,558.3040161132812 592.4019775390625,552.1220092773438 607.9459838867188,540.458984375 C625.572021484375,527.2340087890625 633.5260009765625,520.2739868164062 645.0339965820312,508.0069885253906 C655.8330078125,496.4949951171875 680.9619750976562,474 683.02099609375,474 C683.4089965820312,474 677.7969970703125,479.9620056152344 670.5479736328125,487.25 C663.2990112304688,494.5379943847656 654.72802734375,503.875 651.5009765625,508 C634.7620239257812,529.39697265625 625.0189819335938,538.072998046875 597.0880126953125,556.4550170898438 C583.7960205078125,565.2020263671875 575.52001953125,571.4169921875 570.8380126953125,576.1640014648438 C567.0770263671875,579.9769897460938 564,582.6669921875 564,582.1389770507812 C564,582.1389770507812 564,582.1389770507812 564,582.1389770507812z"></path></g><g opacity="1" transform="matrix(1,0,0,1,0,0)"><path fill="rgb(240,238,231)" fill-opacity="1" d=" M463.2950134277344,582.2319946289062 C457.55999755859375,574.1630249023438 449.0979919433594,565.0850219726562 442.8370056152344,560.2860107421875 C439.9020080566406,558.0360107421875 431.20001220703125,552.719970703125 423.5,548.4719848632812 C404.8909912109375,538.2050170898438 395.9309997558594,531.9580078125 387.5,523.3720092773438 C380.4119873046875,516.1539916992188 378.864990234375,513.8359985351562 368.5539855957031,495 C365.39300537109375,489.2250061035156 361.0090026855469,482.1029968261719 358.81298828125,479.1730041503906 C356.61700439453125,476.2430114746094 355.1310119628906,473.5429992675781 355.510986328125,473.1730041503906 C356.4200134277344,472.2869873046875 362.9700012207031,479.84600830078125 368.3590087890625,488 C370.72198486328125,491.57501220703125 375.2359924316406,498.4179992675781 378.3909912109375,503.20599365234375 C388.75201416015625,518.9310302734375 398.42999267578125,526.489990234375 433.1830139160156,546 C441.7619934082031,550.8159790039062 451.5570068359375,560.2949829101562 458.1839904785156,570.1929931640625 C463.9729919433594,578.8400268554688 468.4179992675781,586.9149780273438 467.7539978027344,587.5789794921875 C467.5419921875,587.791015625 465.5360107421875,585.385009765625 463.2950134277344,582.2319946289062 C463.2950134277344,582.2319946289062 463.2950134277344,582.2319946289062 463.2950134277344,582.2319946289062z"></path><path stroke-linecap="round" stroke-linejoin="round" fill-opacity="0" stroke="rgb(240,238,231)" stroke-opacity="1" stroke-width="1" d=" M463.2950134277344,582.2319946289062 C457.55999755859375,574.1630249023438 449.0979919433594,565.0850219726562 442.8370056152344,560.2860107421875 C439.9020080566406,558.0360107421875 431.20001220703125,552.719970703125 423.5,548.4719848632812 C404.8909912109375,538.2050170898438 395.9309997558594,531.9580078125 387.5,523.3720092773438 C380.4119873046875,516.1539916992188 378.864990234375,513.8359985351562 368.5539855957031,495 C365.39300537109375,489.2250061035156 361.0090026855469,482.1029968261719 358.81298828125,479.1730041503906 C356.61700439453125,476.2430114746094 355.1310119628906,473.5429992675781 355.510986328125,473.1730041503906 C356.4200134277344,472.2869873046875 362.9700012207031,479.84600830078125 368.3590087890625,488 C370.72198486328125,491.57501220703125 375.2359924316406,498.4179992675781 378.3909912109375,503.20599365234375 C388.75201416015625,518.9310302734375 398.42999267578125,526.489990234375 433.1830139160156,546 C441.7619934082031,550.8159790039062 451.5570068359375,560.2949829101562 458.1839904785156,570.1929931640625 C463.9729919433594,578.8400268554688 468.4179992675781,586.9149780273438 467.7539978027344,587.5789794921875 C467.5419921875,587.791015625 465.5360107421875,585.385009765625 463.2950134277344,582.2319946289062 C463.2950134277344,582.2319946289062 463.2950134277344,582.2319946289062 463.2950134277344,582.2319946289062z"></path></g><g opacity="1" transform="matrix(1,0,0,1,0,0)"><path fill="rgb(240,238,231)" fill-opacity="1" d=" M580,841.1580200195312 C580,839.9509887695312 611.31298828125,825.072998046875 625.5,819.5399780273438 C652.7650146484375,808.906005859375 662.8740234375,803.7630004882812 682.2310180664062,790.676025390625 C702.2880249023438,777.1160278320312 715.7869873046875,769.3870239257812 717.1069946289062,770.7069702148438 C717.7890014648438,771.3889770507812 715.573974609375,773.3049926757812 710.3090209960938,776.5859985351562 C706.0139770507812,779.2630004882812 696.4249877929688,785.9879760742188 689,791.531005859375 C658.3610229492188,814.4039916992188 653.0999755859375,817.1519775390625 618,828.614990234375 C603.4249877929688,833.375 589.0819702148438,838.3330078125 586.1259765625,839.6339721679688 C580.0700073242188,842.2999877929688 580,842.3179931640625 580,841.1580200195312 C580,841.1580200195312 580,841.1580200195312 580,841.1580200195312z"></path><path stroke-linecap="round" stroke-linejoin="round" fill-opacity="0" stroke="rgb(240,238,231)" stroke-opacity="1" stroke-width="1" d=" M580,841.1580200195312 C580,839.9509887695312 611.31298828125,825.072998046875 625.5,819.5399780273438 C652.7650146484375,808.906005859375 662.8740234375,803.7630004882812 682.2310180664062,790.676025390625 C702.2880249023438,777.1160278320312 715.7869873046875,769.3870239257812 717.1069946289062,770.7069702148438 C717.7890014648438,771.3889770507812 715.573974609375,773.3049926757812 710.3090209960938,776.5859985351562 C706.0139770507812,779.2630004882812 696.4249877929688,785.9879760742188 689,791.531005859375 C658.3610229492188,814.4039916992188 653.0999755859375,817.1519775390625 618,828.614990234375 C603.4249877929688,833.375 589.0819702148438,838.3330078125 586.1259765625,839.6339721679688 C580.0700073242188,842.2999877929688 580,842.3179931640625 580,841.1580200195312 C580,841.1580200195312 580,841.1580200195312 580,841.1580200195312z"></path></g><g opacity="1" transform="matrix(1,0,0,1,0,0)"><path fill="rgb(240,238,231)" fill-opacity="1" d=" M437.2699890136719,673.0830078125 C428.77398681640625,666.458984375 409.3940124511719,655.844970703125 396.09698486328125,650.5330200195312 C390.9259948730469,648.4669799804688 381.9259948730469,645.677001953125 376.09698486328125,644.3330078125 C370.26800537109375,642.989013671875 359.9209899902344,640.5869750976562 353.1029968261719,638.9979858398438 C334.9630126953125,634.7689819335938 325.4410095214844,629.8040161132812 310.4110107421875,616.7360229492188 C309.0849914550781,615.5830078125 308,614.0960083007812 308,613.4320068359375 C308,612.7680053710938 312.37200927734375,615.14697265625 317.71600341796875,618.719970703125 C333.5480041503906,629.3049926757812 339.9739990234375,631.5120239257812 369.5,636.5050048828125 C387.50799560546875,639.5499877929688 399.489013671875,643.219970703125 412.1050109863281,649.5540161132812 C421.48199462890625,654.2620239257812 434.8059997558594,663.8259887695312 439.39801025390625,669.1439819335938 C440.99200439453125,670.989990234375 443.2120056152344,673.5180053710938 444.3340148925781,674.7630004882812 C445.5639953613281,676.1279907226562 446.00201416015625,677.3619995117188 445.43701171875,677.8729858398438 C444.89801025390625,678.3599853515625 441.4320068359375,676.3280029296875 437.2699890136719,673.0830078125 C437.2699890136719,673.0830078125 437.2699890136719,673.0830078125 437.2699890136719,673.0830078125z"></path><path stroke-linecap="round" stroke-linejoin="round" fill-opacity="0" stroke="rgb(240,238,231)" stroke-opacity="1" stroke-width="1" d=" M437.2699890136719,673.0830078125 C428.77398681640625,666.458984375 409.3940124511719,655.844970703125 396.09698486328125,650.5330200195312 C390.9259948730469,648.4669799804688 381.9259948730469,645.677001953125 376.09698486328125,644.3330078125 C370.26800537109375,642.989013671875 359.9209899902344,640.5869750976562 353.1029968261719,638.9979858398438 C334.9630126953125,634.7689819335938 325.4410095214844,629.8040161132812 310.4110107421875,616.7360229492188 C309.0849914550781,615.5830078125 308,614.0960083007812 308,613.4320068359375 C308,612.7680053710938 312.37200927734375,615.14697265625 317.71600341796875,618.719970703125 C333.5480041503906,629.3049926757812 339.9739990234375,631.5120239257812 369.5,636.5050048828125 C387.50799560546875,639.5499877929688 399.489013671875,643.219970703125 412.1050109863281,649.5540161132812 C421.48199462890625,654.2620239257812 434.8059997558594,663.8259887695312 439.39801025390625,669.1439819335938 C440.99200439453125,670.989990234375 443.2120056152344,673.5180053710938 444.3340148925781,674.7630004882812 C445.5639953613281,676.1279907226562 446.00201416015625,677.3619995117188 445.43701171875,677.8729858398438 C444.89801025390625,678.3599853515625 441.4320068359375,676.3280029296875 437.2699890136719,673.0830078125 C437.2699890136719,673.0830078125 437.2699890136719,673.0830078125 437.2699890136719,673.0830078125z"></path></g><g opacity="1" transform="matrix(1,0,0,1,0,0)"><path fill="rgb(240,238,231)" fill-opacity="1" d=" M445.1199951171875,422.41400146484375 C433.82598876953125,417.67498779296875 426.0799865722656,412.22100830078125 420.0150146484375,404.7359924316406 C414.0989990234375,397.43499755859375 410.46600341796875,388.6889953613281 406.0010070800781,371.0050048828125 C401.20001220703125,351.989013671875 399.718994140625,349.4809875488281 384.5920104980469,334.7569885253906 C377.3909912109375,327.74798583984375 371.9519958496094,322.010986328125 372.5050048828125,322.0069885253906 C374.1000061035156,321.9960021972656 394.47698974609375,338.5710144042969 398.1629943847656,342.87701416015625 C404.3269958496094,350.0780029296875 408.8819885253906,359.2120056152344 413.5679931640625,373.7650146484375 C422.0360107421875,400.0610046386719 428.60400390625,409.03399658203125 446.7309875488281,419.07598876953125 C451.8240051269531,421.8970031738281 455.7409973144531,424.6099853515625 455.4360046386719,425.1029968261719 C454.6499938964844,426.3760070800781 454.4179992675781,426.31500244140625 445.1199951171875,422.41400146484375 C445.1199951171875,422.41400146484375 445.1199951171875,422.41400146484375 445.1199951171875,422.41400146484375z"></path><path stroke-linecap="round" stroke-linejoin="round" fill-opacity="0" stroke="rgb(240,238,231)" stroke-opacity="1" stroke-width="1" d=" M445.1199951171875,422.41400146484375 C433.82598876953125,417.67498779296875 426.0799865722656,412.22100830078125 420.0150146484375,404.7359924316406 C414.0989990234375,397.43499755859375 410.46600341796875,388.6889953613281 406.0010070800781,371.0050048828125 C401.20001220703125,351.989013671875 399.718994140625,349.4809875488281 384.5920104980469,334.7569885253906 C377.3909912109375,327.74798583984375 371.9519958496094,322.010986328125 372.5050048828125,322.0069885253906 C374.1000061035156,321.9960021972656 394.47698974609375,338.5710144042969 398.1629943847656,342.87701416015625 C404.3269958496094,350.0780029296875 408.8819885253906,359.2120056152344 413.5679931640625,373.7650146484375 C422.0360107421875,400.0610046386719 428.60400390625,409.03399658203125 446.7309875488281,419.07598876953125 C451.8240051269531,421.8970031738281 455.7409973144531,424.6099853515625 455.4360046386719,425.1029968261719 C454.6499938964844,426.3760070800781 454.4179992675781,426.31500244140625 445.1199951171875,422.41400146484375 C445.1199951171875,422.41400146484375 445.1199951171875,422.41400146484375 445.1199951171875,422.41400146484375z"></path></g><g opacity="1" transform="matrix(1,0,0,1,0,0)"><path fill="rgb(240,238,231)" fill-opacity="1" d=" M455.5,843.635009765625 C449.45001220703125,841.3040161132812 442.4750061035156,838.8660278320312 440,838.2160034179688 C403.4309997558594,828.6179809570312 382.52899169921875,821.739990234375 372.1199951171875,815.8800048828125 C369.02899169921875,814.1400146484375 363.3500061035156,810.3419799804688 359.5,807.4400024414062 C351.82000732421875,801.6500244140625 331,780.9829711914062 331,779.1489868164062 C331,776.7310180664062 333.4630126953125,778.2319946289062 340.1700134277344,784.7349853515625 C351.27398681640625,795.5020141601562 361.5660095214844,802.6900024414062 375.5,809.4099731445312 C391.4150085449219,817.0850219726562 400.5400085449219,820.5059814453125 422.5,827.0360107421875 C434.4410095214844,830.5859985351562 442.99200439453125,833.864990234375 451.2340087890625,838.051025390625 C472.74200439453125,848.9749755859375 474.15399169921875,850.822021484375 455.5,843.635009765625 C455.5,843.635009765625 455.5,843.635009765625 455.5,843.635009765625z"></path><path stroke-linecap="round" stroke-linejoin="round" fill-opacity="0" stroke="rgb(240,238,231)" stroke-opacity="1" stroke-width="1" d=" M455.5,843.635009765625 C449.45001220703125,841.3040161132812 442.4750061035156,838.8660278320312 440,838.2160034179688 C403.4309997558594,828.6179809570312 382.52899169921875,821.739990234375 372.1199951171875,815.8800048828125 C369.02899169921875,814.1400146484375 363.3500061035156,810.3419799804688 359.5,807.4400024414062 C351.82000732421875,801.6500244140625 331,780.9829711914062 331,779.1489868164062 C331,776.7310180664062 333.4630126953125,778.2319946289062 340.1700134277344,784.7349853515625 C351.27398681640625,795.5020141601562 361.5660095214844,802.6900024414062 375.5,809.4099731445312 C391.4150085449219,817.0850219726562 400.5400085449219,820.5059814453125 422.5,827.0360107421875 C434.4410095214844,830.5859985351562 442.99200439453125,833.864990234375 451.2340087890625,838.051025390625 C472.74200439453125,848.9749755859375 474.15399169921875,850.822021484375 455.5,843.635009765625 C455.5,843.635009765625 455.5,843.635009765625 455.5,843.635009765625z"></path></g><g opacity="1" transform="matrix(1,0,0,1,0,0)"><path fill="rgb(240,238,231)" fill-opacity="1" d=" M592.6090087890625,691.176025390625 C591.6610107421875,689.6420288085938 606.4329833984375,676.291015625 618,668.22900390625 C634.22900390625,656.9169921875 642.8419799804688,652.9569702148438 667.541015625,645.4530029296875 C684.89697265625,640.1799926757812 701.6420288085938,634.1079711914062 714.6209716796875,628.3800048828125 C715.5679931640625,627.9619750976562 717.5789794921875,630.8740234375 716.7739868164062,631.4979858398438 C716.6240234375,631.614990234375 712.6749877929688,633.9329833984375 708,636.6500244140625 C696.4609985351562,643.3560180664062 688.9450073242188,646.4450073242188 677.8610229492188,649.031982421875 C649.5059814453125,655.6510009765625 649.3159790039062,655.7150268554688 632.5540161132812,664.1329956054688 C622.916015625,668.9739990234375 607.56298828125,679.5490112304688 599.7589721679688,686.7230224609375 C593.6890258789062,692.302001953125 593.4119873046875,692.4749755859375 592.6090087890625,691.176025390625 C592.6090087890625,691.176025390625 592.6090087890625,691.176025390625 592.6090087890625,691.176025390625z"></path><path stroke-linecap="round" stroke-linejoin="round" fill-opacity="0" stroke="rgb(240,238,231)" stroke-opacity="1" stroke-width="1" d=" M592.6090087890625,691.176025390625 C591.6610107421875,689.6420288085938 606.4329833984375,676.291015625 618,668.22900390625 C634.22900390625,656.9169921875 642.8419799804688,652.9569702148438 667.541015625,645.4530029296875 C684.89697265625,640.1799926757812 701.6420288085938,634.1079711914062 714.6209716796875,628.3800048828125 C715.5679931640625,627.9619750976562 717.5789794921875,630.8740234375 716.7739868164062,631.4979858398438 C716.6240234375,631.614990234375 712.6749877929688,633.9329833984375 708,636.6500244140625 C696.4609985351562,643.3560180664062 688.9450073242188,646.4450073242188 677.8610229492188,649.031982421875 C649.5059814453125,655.6510009765625 649.3159790039062,655.7150268554688 632.5540161132812,664.1329956054688 C622.916015625,668.9739990234375 607.56298828125,679.5490112304688 599.7589721679688,686.7230224609375 C593.6890258789062,692.302001953125 593.4119873046875,692.4749755859375 592.6090087890625,691.176025390625 C592.6090087890625,691.176025390625 592.6090087890625,691.176025390625 592.6090087890625,691.176025390625z"></path></g><g opacity="1" transform="matrix(1,0,0,1,0,0)"><path fill="rgb(240,238,231)" fill-opacity="1" d=" M514.5260009765625,369.0429992675781 C514.2009887695312,368.5159912109375 515.6859741210938,364.5790100097656 517.8270263671875,360.2929992675781 C526.5989990234375,342.72900390625 527.7919921875,334.2149963378906 523.4970092773438,319.8630065917969 C516.072998046875,295.0559997558594 514.875,288.9830017089844 514.27197265625,273.093994140625 C513.833984375,261.5639953613281 513.97900390625,257.8680114746094 514.843994140625,258.40301513671875 C515.47998046875,258.7959899902344 516,260.2720031738281 516,261.6830139160156 C516,267.0570068359375 521.114990234375,289.156005859375 526.0269775390625,305 C532.156982421875,324.77398681640625 533.447021484375,336.26800537109375 530.5369873046875,345.1940002441406 C529.0349731445312,349.802001953125 516.8579711914062,370 515.5819702148438,370 C515.3270263671875,370 514.8510131835938,369.57000732421875 514.5260009765625,369.0429992675781 C514.5260009765625,369.0429992675781 514.5260009765625,369.0429992675781 514.5260009765625,369.0429992675781z"></path><path stroke-linecap="round" stroke-linejoin="round" fill-opacity="0" stroke="rgb(240,238,231)" stroke-opacity="1" stroke-width="1" d=" M514.5260009765625,369.0429992675781 C514.2009887695312,368.5159912109375 515.6859741210938,364.5790100097656 517.8270263671875,360.2929992675781 C526.5989990234375,342.72900390625 527.7919921875,334.2149963378906 523.4970092773438,319.8630065917969 C516.072998046875,295.0559997558594 514.875,288.9830017089844 514.27197265625,273.093994140625 C513.833984375,261.5639953613281 513.97900390625,257.8680114746094 514.843994140625,258.40301513671875 C515.47998046875,258.7959899902344 516,260.2720031738281 516,261.6830139160156 C516,267.0570068359375 521.114990234375,289.156005859375 526.0269775390625,305 C532.156982421875,324.77398681640625 533.447021484375,336.26800537109375 530.5369873046875,345.1940002441406 C529.0349731445312,349.802001953125 516.8579711914062,370 515.5819702148438,370 C515.3270263671875,370 514.8510131835938,369.57000732421875 514.5260009765625,369.0429992675781 C514.5260009765625,369.0429992675781 514.5260009765625,369.0429992675781 514.5260009765625,369.0429992675781z"></path></g><g opacity="1" transform="matrix(1,0,0,1,0,0)"><path fill="rgb(193,228,210)" fill-opacity="1" d=" M717.4619750976562,770.9390258789062 C716.6160278320312,769.5700073242188 716.0900268554688,769.93701171875 726,764.9849853515625 C730.6749877929688,762.6489868164062 736.4439697265625,759.4039916992188 738.8200073242188,757.7730102539062 C741.1959838867188,756.1420288085938 743.3460083007812,755.0130004882812 743.5969848632812,755.2639770507812 C744.0900268554688,755.7570190429688 730.4450073242188,765.0009765625 722.81201171875,769.343994140625 C719.7570190429688,771.0819702148438 717.8939819335938,771.6380004882812 717.4619750976562,770.9390258789062 C717.4619750976562,770.9390258789062 717.4619750976562,770.9390258789062 717.4619750976562,770.9390258789062z"></path><path stroke-linecap="round" stroke-linejoin="round" fill-opacity="0" stroke="rgb(193,228,210)" stroke-opacity="1" stroke-width="1" d=" M717.4619750976562,770.9390258789062 C716.6160278320312,769.5700073242188 716.0900268554688,769.93701171875 726,764.9849853515625 C730.6749877929688,762.6489868164062 736.4439697265625,759.4039916992188 738.8200073242188,757.7730102539062 C741.1959838867188,756.1420288085938 743.3460083007812,755.0130004882812 743.5969848632812,755.2639770507812 C744.0900268554688,755.7570190429688 730.4450073242188,765.0009765625 722.81201171875,769.343994140625 C719.7570190429688,771.0819702148438 717.8939819335938,771.6380004882812 717.4619750976562,770.9390258789062 C717.4619750976562,770.9390258789062 717.4619750976562,770.9390258789062 717.4619750976562,770.9390258789062z"></path></g><g opacity="1" transform="matrix(1,0,0,1,0,0)"><path fill="rgb(176,175,244)" fill-opacity="1" d=" M716.6669921875,630.3330078125 C715.281005859375,628.947021484375 716.1630249023438,628.030029296875 721.75,625.0499877929688 C724.9119873046875,623.3629760742188 729.8709716796875,620.18701171875 732.77001953125,617.9920043945312 C738.2689819335938,613.8270263671875 740.1190185546875,612.947021484375 737.9959716796875,615.5050048828125 C736.5809936523438,617.2100219726562 718.656005859375,631 717.85498046875,631 C717.5679931640625,631 717.0339965820312,630.7000122070312 716.6669921875,630.3330078125 C716.6669921875,630.3330078125 716.6669921875,630.3330078125 716.6669921875,630.3330078125z"></path><path stroke-linecap="round" stroke-linejoin="round" fill-opacity="0" stroke="rgb(176,175,244)" stroke-opacity="1" stroke-width="1" d=" M716.6669921875,630.3330078125 C715.281005859375,628.947021484375 716.1630249023438,628.030029296875 721.75,625.0499877929688 C724.9119873046875,623.3629760742188 729.8709716796875,620.18701171875 732.77001953125,617.9920043945312 C738.2689819335938,613.8270263671875 740.1190185546875,612.947021484375 737.9959716796875,615.5050048828125 C736.5809936523438,617.2100219726562 718.656005859375,631 717.85498046875,631 C717.5679931640625,631 717.0339965820312,630.7000122070312 716.6669921875,630.3330078125 C716.6669921875,630.3330078125 716.6669921875,630.3330078125 716.6669921875,630.3330078125z"></path></g><g opacity="1" transform="matrix(1,0,0,1,0,0)"><path fill="rgb(221,226,205)" fill-opacity="1" d=" M457.4750061035156,696.281005859375 C456.48699951171875,694.7509765625 453.2430114746094,690.2479858398438 450.2669982910156,686.27197265625 C447.2909851074219,682.2960205078125 445.15301513671875,678.56201171875 445.5169982910156,677.9730224609375 C445.9849853515625,677.2150268554688 446.5610046386719,677.219970703125 447.489990234375,677.9910278320312 C449.27801513671875,679.4749755859375 460.2959899902344,698.0380249023438 459.72698974609375,698.6069946289062 C459.47601318359375,698.8579711914062 458.4630126953125,697.8109741210938 457.4750061035156,696.281005859375 C457.4750061035156,696.281005859375 457.4750061035156,696.281005859375 457.4750061035156,696.281005859375z"></path><path stroke-linecap="round" stroke-linejoin="round" fill-opacity="0" stroke="rgb(221,226,205)" stroke-opacity="1" stroke-width="1" d=" M457.4750061035156,696.281005859375 C456.48699951171875,694.7509765625 453.2430114746094,690.2479858398438 450.2669982910156,686.27197265625 C447.2909851074219,682.2960205078125 445.15301513671875,678.56201171875 445.5169982910156,677.9730224609375 C445.9849853515625,677.2150268554688 446.5610046386719,677.219970703125 447.489990234375,677.9910278320312 C449.27801513671875,679.4749755859375 460.2959899902344,698.0380249023438 459.72698974609375,698.6069946289062 C459.47601318359375,698.8579711914062 458.4630126953125,697.8109741210938 457.4750061035156,696.281005859375 C457.4750061035156,696.281005859375 457.4750061035156,696.281005859375 457.4750061035156,696.281005859375z"></path></g><g opacity="1" transform="matrix(1,0,0,1,0,0)"><path fill="rgb(221,226,205)" fill-opacity="1" d=" M579.030029296875,708.5 C579.0419921875,706.9940185546875 590.31298828125,691.6950073242188 591.75,691.2340087890625 C594.1290283203125,690.4710083007812 592.9819946289062,692.9530029296875 588.75,697.72802734375 C586.4119873046875,700.364990234375 583.2670288085938,704.093017578125 581.760986328125,706.0120239257812 C580.2550048828125,707.9310302734375 579.0260009765625,709.0499877929688 579.030029296875,708.5 C579.030029296875,708.5 579.030029296875,708.5 579.030029296875,708.5z"></path><path stroke-linecap="round" stroke-linejoin="round" fill-opacity="0" stroke="rgb(221,226,205)" stroke-opacity="1" stroke-width="1" d=" M579.030029296875,708.5 C579.0419921875,706.9940185546875 590.31298828125,691.6950073242188 591.75,691.2340087890625 C594.1290283203125,690.4710083007812 592.9819946289062,692.9530029296875 588.75,697.72802734375 C586.4119873046875,700.364990234375 583.2670288085938,704.093017578125 581.760986328125,706.0120239257812 C580.2550048828125,707.9310302734375 579.0260009765625,709.0499877929688 579.030029296875,708.5 C579.030029296875,708.5 579.030029296875,708.5 579.030029296875,708.5z"></path></g><g opacity="1" transform="matrix(1,0,0,1,0,0)"><path fill="rgb(212,223,206)" fill-opacity="1" d=" M324.82598876953125,774.22802734375 C321.8370056152344,771.6270141601562 317.8399963378906,768.2839965820312 315.94500732421875,766.7969970703125 C313.6080017089844,764.9639892578125 313.031005859375,764.0789794921875 314.1510009765625,764.0469970703125 C315.93499755859375,763.9959716796875 326.0429992675781,771.2540283203125 329.82501220703125,775.301025390625 C334.0610046386719,779.833984375 330.3559875488281,779.0390014648438 324.82598876953125,774.22802734375 C324.82598876953125,774.22802734375 324.82598876953125,774.22802734375 324.82598876953125,774.22802734375z"></path><path stroke-linecap="round" stroke-linejoin="round" fill-opacity="0" stroke="rgb(212,223,206)" stroke-opacity="1" stroke-width="1" d=" M324.82598876953125,774.22802734375 C321.8370056152344,771.6270141601562 317.8399963378906,768.2839965820312 315.94500732421875,766.7969970703125 C313.6080017089844,764.9639892578125 313.031005859375,764.0789794921875 314.1510009765625,764.0469970703125 C315.93499755859375,763.9959716796875 326.0429992675781,771.2540283203125 329.82501220703125,775.301025390625 C334.0610046386719,779.833984375 330.3559875488281,779.0390014648438 324.82598876953125,774.22802734375 C324.82598876953125,774.22802734375 324.82598876953125,774.22802734375 324.82598876953125,774.22802734375z"></path></g><g opacity="1" transform="matrix(1,0,0,1,0,0)"><path fill="rgb(193,228,210)" fill-opacity="1" d=" M510.10198974609375,384.4599914550781 C510.00799560546875,381.66900634765625 512.56298828125,370.10400390625 513.4749755859375,369.1919860839844 C513.6909790039062,368.97601318359375 514.2969970703125,369.06500244140625 514.822021484375,369.3900146484375 C515.39501953125,369.7439880371094 515.0560302734375,372.0849914550781 513.9749755859375,375.239990234375 C512.9840087890625,378.13299560546875 511.7309875488281,382.07501220703125 511.1889953613281,384 C510.2040100097656,387.5 510.2040100097656,387.5 510.10198974609375,384.4599914550781 C510.10198974609375,384.4599914550781 510.10198974609375,384.4599914550781 510.10198974609375,384.4599914550781z"></path><path stroke-linecap="round" stroke-linejoin="round" fill-opacity="0" stroke="rgb(193,228,210)" stroke-opacity="1" stroke-width="1" d=" M510.10198974609375,384.4599914550781 C510.00799560546875,381.66900634765625 512.56298828125,370.10400390625 513.4749755859375,369.1919860839844 C513.6909790039062,368.97601318359375 514.2969970703125,369.06500244140625 514.822021484375,369.3900146484375 C515.39501953125,369.7439880371094 515.0560302734375,372.0849914550781 513.9749755859375,375.239990234375 C512.9840087890625,378.13299560546875 511.7309875488281,382.07501220703125 511.1889953613281,384 C510.2040100097656,387.5 510.2040100097656,387.5 510.10198974609375,384.4599914550781 C510.10198974609375,384.4599914550781 510.10198974609375,384.4599914550781 510.10198974609375,384.4599914550781z"></path></g><g opacity="1" transform="matrix(1,0,0,1,0,0)"><path fill="rgb(162,162,158)" fill-opacity="1" d=" M513.1890258789062,253.3090057373047 C513.072998046875,243.38299560546875 513.3870239257812,236.87899780273438 514,236.5 C514.5869750976562,236.13699340820312 515.02099609375,237.25 515.0499877929688,239.1909942626953 C515.0770263671875,241.01100158691406 515.2890014648438,246.22999572753906 515.52001953125,250.7899932861328 C515.7680053710938,255.68699645996094 515.56298828125,258.8479919433594 515.02001953125,258.51300048828125 C514.5150146484375,258.20098876953125 513.9390258789062,260.54400634765625 513.739990234375,263.72198486328125 C513.541015625,266.8999938964844 513.2930297851562,262.2139892578125 513.1890258789062,253.3090057373047 C513.1890258789062,253.3090057373047 513.1890258789062,253.3090057373047 513.1890258789062,253.3090057373047z"></path><path stroke-linecap="round" stroke-linejoin="round" fill-opacity="0" stroke="rgb(162,162,158)" stroke-opacity="1" stroke-width="1" d=" M513.1890258789062,253.3090057373047 C513.072998046875,243.38299560546875 513.3870239257812,236.87899780273438 514,236.5 C514.5869750976562,236.13699340820312 515.02099609375,237.25 515.0499877929688,239.1909942626953 C515.0770263671875,241.01100158691406 515.2890014648438,246.22999572753906 515.52001953125,250.7899932861328 C515.7680053710938,255.68699645996094 515.56298828125,258.8479919433594 515.02001953125,258.51300048828125 C514.5150146484375,258.20098876953125 513.9390258789062,260.54400634765625 513.739990234375,263.72198486328125 C513.541015625,266.8999938964844 513.2930297851562,262.2139892578125 513.1890258789062,253.3090057373047 C513.1890258789062,253.3090057373047 513.1890258789062,253.3090057373047 513.1890258789062,253.3090057373047z"></path></g><g opacity="1" transform="matrix(1,0,0,1,0,0)"><path fill="rgb(221,226,205)" fill-opacity="1" d=" M464,430.4119873046875 C459.875,428.55499267578125 456.0830078125,426.8890075683594 455.572998046875,426.7090148925781 C455.06298828125,426.52899169921875 454.9880065917969,425.8280029296875 455.4070129394531,425.1499938964844 C455.96600341796875,424.2460021972656 458.2090148925781,425.01300048828125 463.8349914550781,428.0350036621094 C476.3160095214844,434.739013671875 476.40301513671875,435.9949951171875 464,430.4119873046875 C464,430.4119873046875 464,430.4119873046875 464,430.4119873046875z"></path><path stroke-linecap="round" stroke-linejoin="round" fill-opacity="0" stroke="rgb(221,226,205)" stroke-opacity="1" stroke-width="1" d=" M464,430.4119873046875 C459.875,428.55499267578125 456.0830078125,426.8890075683594 455.572998046875,426.7090148925781 C455.06298828125,426.52899169921875 454.9880065917969,425.8280029296875 455.4070129394531,425.1499938964844 C455.96600341796875,424.2460021972656 458.2090148925781,425.01300048828125 463.8349914550781,428.0350036621094 C476.3160095214844,434.739013671875 476.40301513671875,435.9949951171875 464,430.4119873046875 C464,430.4119873046875 464,430.4119873046875 464,430.4119873046875z"></path></g><g opacity="1" transform="matrix(1,0,0,1,0,0)"><path fill="rgb(121,121,121)" fill-opacity="1" d=" M513,228.5 C513,223.00900268554688 513.3629760742188,220.1060028076172 514,220.5 C514.5499877929688,220.83999633789062 515,224.44000244140625 515,228.5 C515,232.55999755859375 514.5499877929688,236.16000366210938 514,236.5 C513.3629760742188,236.8939971923828 513,233.99099731445312 513,228.5 C513,228.5 513,228.5 513,228.5z"></path><path stroke-linecap="round" stroke-linejoin="round" fill-opacity="0" stroke="rgb(121,121,121)" stroke-opacity="1" stroke-width="1" d=" M513,228.5 C513,223.00900268554688 513.3629760742188,220.1060028076172 514,220.5 C514.5499877929688,220.83999633789062 515,224.44000244140625 515,228.5 C515,232.55999755859375 514.5499877929688,236.16000366210938 514,236.5 C513.3629760742188,236.8939971923828 513,233.99099731445312 513,228.5 C513,228.5 513,228.5 513,228.5z"></path></g><g opacity="1" transform="matrix(1,0,0,1,0,0)"><path fill="rgb(104,104,100)" fill-opacity="1" d=" M513.6669921875,220.33299255371094 C512.583984375,219.25 512.8930053710938,205 514,205 C514.5830078125,205 515,208.33299255371094 515,213 C515,221.0240020751953 514.9010009765625,221.56700134277344 513.6669921875,220.33299255371094 C513.6669921875,220.33299255371094 513.6669921875,220.33299255371094 513.6669921875,220.33299255371094z"></path><path stroke-linecap="round" stroke-linejoin="round" fill-opacity="0" stroke="rgb(104,104,100)" stroke-opacity="1" stroke-width="1" d=" M513.6669921875,220.33299255371094 C512.583984375,219.25 512.8930053710938,205 514,205 C514.5830078125,205 515,208.33299255371094 515,213 C515,221.0240020751953 514.9010009765625,221.56700134277344 513.6669921875,220.33299255371094 C513.6669921875,220.33299255371094 513.6669921875,220.33299255371094 513.6669921875,220.33299255371094z"></path></g></g></g></g></svg>